<svg xmlns="http://www.w3.org/2000/svg" width="64" height="64" viewBox="0 0 64 64" fill="none">
  <defs>
    <linearGradient id="g" x1="10" y1="6" x2="54" y2="58" gradientUnits="userSpaceOnUse">
      <stop stop-color="#6366F1"/>
      <stop offset="1" stop-color="#A855F7"/>
    </linearGradient>
  </defs>
  <rect x="6" y="6" width="52" height="52" rx="14" fill="url(#g)"/>
  <path d="M39.2 23.6c-1.9-1.9-4.4-2.8-7.6-2.8-3.3 0-6.1 1.1-8.3 3.3-2.2 2.2-3.3 5-3.3 8.5 0 3.6 1.1 6.5 3.2 8.6 2.1 2.1 4.9 3.2 8.4 3.2 3.2 0 5.9-.9 8-2.7v-7.9h-8v-3.9H44v13.9c-3 2.9-7.1 4.4-12.4 4.4-4.7 0-8.5-1.5-11.5-4.4-3-3-4.4-6.7-4.4-11.3 0-4.6 1.5-8.4 4.5-11.4 3-3 6.9-4.5 11.6-4.5 4.6 0 8.3 1.3 11.2 4.1l-3 2.8z" fill="white" fill-opacity="0.95"/>
</svg>

